<svg xmlns="http://www.w3.org/2000/svg" xmlns:xlink="http://www.w3.org/1999/xlink" viewBox="0 0 2848.39 1576"><defs><style>.cls-1{isolation:isolate;}.cls-2{fill:url(#Degradado_sin_nombre_6);}.cls-3{opacity:0.1;mix-blend-mode:multiply;fill:url(#radial-gradient);}</style><radialGradient id="Degradado_sin_nombre_6" cx="580.23" cy="381.1" r="1600.59" gradientTransform="translate(730.48 409.69) scale(1.2 0.99)" gradientUnits="userSpaceOnUse"><stop offset="0" stop-color="#89bd29"/><stop offset="0.92" stop-color="#89bd29"/><stop offset="1" stop-color="#89bd29"/></radialGradient><radialGradient id="radial-gradient" cx="576.74" cy="393.48" r="1011.91" gradientTransform="translate(-8.19 -6.27) scale(1.19 0.98)" gradientUnits="userSpaceOnUse"><stop offset="0" stop-color="#dbc7e7"/><stop offset="0.25" stop-color="#bfb1d9"/><stop offset="0.52" stop-color="#a89fcd"/><stop offset="0.78" stop-color="#9a94c6"/><stop offset="1" stop-color="#9590c4"/></radialGradient></defs><title>fondo-validacion</title><g class="cls-1"><g id="Capa_1" data-name="Capa 1"><rect class="cls-2" x="0.39" width="2848" height="1576"/><path class="cls-3" d="M1258.6,1163h777.33c22.31-30.74,44.07-61.82,66.51-92.33V122.17c-33.29,6.23-65,13.84-91.74,19.61-206.22,44.62-400.18,124.83-596.1,192.92-89.56,31.12-262.13,104.75-290.87-18.88-33.91-145.93,118.53-285.6,228-381.15,128.84-112.47,282.08-205.77,404.57-322.6,4.18-4,8.55-8.19,13-12.59H646.3c-6.95,4.09-13.9,8.18-20.72,12.39C454.36-282.71,316.52-172.25,117.69-78.07c-99.25,47-299.59,156.87-409.24,61-112.26-98.18,68.13-270.45,125.28-353,6.12-8.85,13.81-19.12,22.34-30.44H-741.39V486.31c142.41-38.94,523.27-111,541.19,55.41,9.68,89.81-156.07,196.64-216.76,256.94-109,108.28-194.79,229.49-274.22,353.34-2.32,3.61-4.8,7.29-7.36,11H-14.81q31.85-18.09,64-35.45c238.15-128.18,481.22-249.71,734.3-357.27,143.12-60.83,353.65-146.16,522.52-116,118.37,21.14,70.06,129.22,51.77,205.16C1333.78,959.1,1291.51,1060.44,1258.6,1163Z" transform="translate(741.39 413)"/></g></g></svg>