<?xml version="1.0" encoding="utf-8"?>
<!-- Generator: Adobe Illustrator 23.0.0, SVG Export Plug-In . SVG Version: 6.00 Build 0)  -->
<svg version="1.1" id="Capa_1" xmlns="http://www.w3.org/2000/svg" xmlns:xlink="http://www.w3.org/1999/xlink" x="0px" y="0px"
	 viewBox="0 0 2848.4 1576" style="enable-background:new 0 0 2848.4 1576;" xml:space="preserve">
<style type="text/css">
	.st0{fill:#D6975F;}
	.st1{opacity:0.1;fill:url(#SVGID_1_);enable-background:new    ;}
</style>
<title>fondo-validacion</title>
<g>
	<g>
		<rect x="0.4" y="0" class="st0" width="2848" height="1576"/>
		
			<radialGradient id="SVGID_1_" cx="534.6848" cy="1163.4622" r="1010.7307" gradientTransform="matrix(1.19 0 0 -0.98 785.64 1932.5334)" gradientUnits="userSpaceOnUse">
			<stop  offset="0" style="stop-color:#DBC7E7"/>
			<stop  offset="0.25" style="stop-color:#BFB1D9"/>
			<stop  offset="0.52" style="stop-color:#A89FCD"/>
			<stop  offset="0.78" style="stop-color:#9A94C6"/>
			<stop  offset="1" style="stop-color:#9590C4"/>
		</radialGradient>
		<path class="st1" d="M2000,1576h777.3c22.3-30.7,44.1-61.8,66.5-92.3V535.2c-33.3,6.2-65,13.8-91.7,19.6
			c-206.2,44.6-400.2,124.8-596.1,192.9c-89.6,31.1-262.1,104.8-290.9-18.9c-33.9-145.9,118.5-285.6,228-381.2
			c128.8-112.5,282.1-205.8,404.6-322.6c4.2-4,8.6-8.2,13-12.6h-1123c-6.9,4.1-13.9,8.2-20.7,12.4
			c-171.2,105.4-309.1,215.9-507.9,310.1c-99.3,47-299.6,156.9-409.2,61c-112.3-98.2,68.1-270.5,125.3-353
			c6.1-8.9,13.8-19.1,22.3-30.4H0v886.8c142.4-38.9,523.3-111,541.2,55.4c9.7,89.8-156.1,196.6-216.8,256.9
			c-109,108.3-194.8,229.5-274.2,353.3c-2.3,3.6-4.8,7.3-7.4,11h683.7c21.2-12.1,42.6-23.9,64-35.4
			c238.1-128.2,481.2-249.7,734.3-357.3c143.1-60.8,353.7-146.2,522.5-116c118.4,21.1,70.1,129.2,51.8,205.2
			C2075.2,1372.1,2032.9,1473.4,2000,1576z"/>
	</g>
</g>
</svg>
