<svg id="Capa_1" data-name="Capa 1" xmlns="http://www.w3.org/2000/svg" xmlns:xlink="http://www.w3.org/1999/xlink" viewBox="0 0 2848.39 1576"><defs><style>.cls-1{fill:#17a673;}.cls-2{opacity:0.1;isolation:isolate;fill:url(#Degradado_sin_nombre_2);}</style><radialGradient id="Degradado_sin_nombre_2" cx="710.32" cy="1186.36" r="1010.73" gradientTransform="matrix(1.19, 0, 0, -0.98, 576.64, 1954.97)" gradientUnits="userSpaceOnUse"><stop offset="0" stop-color="#dbc7e7"/><stop offset="0.25" stop-color="#bfb1d9"/><stop offset="0.52" stop-color="#a89fcd"/><stop offset="0.78" stop-color="#9a94c6"/><stop offset="1" stop-color="#9590c4"/></radialGradient></defs><title>fondo-principal-logistica</title><g id="Capa_1-2" data-name="Capa 1"><rect class="cls-1" x="0.39" width="2848" height="1576"/><path class="cls-2" d="M2000,1576h777.33c22.31-30.74,44.07-61.82,66.51-92.33V535.17c-33.29,6.23-65,13.84-91.74,19.61C2545.87,599.4,2351.91,679.61,2156,747.7c-89.56,31.12-262.13,104.75-290.87-18.88-33.91-145.93,118.53-285.6,228-381.15C2222,235.2,2375.2,141.9,2497.69,25.07c4.18-4,8.55-8.19,13-12.59h-1123c-7,4.09-13.9,8.18-20.72,12.39-171.22,105.42-309.06,215.88-507.89,310.06-99.25,47-299.59,156.87-409.24,61C337.58,297.75,518,125.48,575.12,42.93c6.12-8.85,13.81-19.12,22.34-30.44H0V899.31c142.41-38.94,523.27-111,541.19,55.41,9.68,89.81-156.07,196.64-216.76,256.94-109,108.28-194.79,229.49-274.22,353.34-2.32,3.61-4.8,7.29-7.36,11H726.58q31.84-18.09,64-35.45c238.15-128.18,481.22-249.71,734.3-357.27,143.12-60.83,353.65-146.16,522.52-116,118.37,21.14,70.06,129.22,51.77,205.16C2075.17,1372.1,2032.9,1473.44,2000,1576Z"/></g></svg>